HIERARCHY
ROOT Hips
{
	OFFSET	0.00	0.00	0.00
	CHANNELS 6 Xposition Yposition Zposition Zrotation Xrotation Yrotation
	JOINT LeftUpLeg
	{
		OFFSET	 0.126116	-0.065224	 0.014019
		CHANNELS 3 Zrotation Xrotation Yrotation
		JOINT LeftLeg
		{
			OFFSET	 0.000000	 0.569914	 0.000000
			CHANNELS 3 Zrotation Xrotation Yrotation
			JOINT LeftFoot
			{
				OFFSET	 0.000000	 0.544423	 0.000000
				CHANNELS 3 Zrotation Xrotation Yrotation
				JOINT LeftToeBase
				{
					OFFSET	 0.000000	 0.207117	 0.000000
					CHANNELS 3 Zrotation Xrotation Yrotation
					End Site
					{
						OFFSET	 0.000000	 0.207117	 0.000000
					}
				}
			}
		}
	}
	JOINT RightUpLeg
	{
		OFFSET	-0.124023	-0.065224	 0.008373
		CHANNELS 3 Zrotation Xrotation Yrotation
		JOINT RightLeg
		{
			OFFSET	 0.000000	 0.570047	 0.000000
			CHANNELS 3 Zrotation Xrotation Yrotation
			JOINT RightFoot
			{
				OFFSET	 0.000000	 0.544354	 0.000000
				CHANNELS 3 Zrotation Xrotation Yrotation
				JOINT RightToeBase
				{
					OFFSET	 0.000000	 0.207540	 0.000000
					CHANNELS 3 Zrotation Xrotation Yrotation
					End Site
					{
						OFFSET	 0.000000	 0.207540	 0.000000
					}
				}
			}
		}
	}
	JOINT Spine
	{
		OFFSET	 0.000184	 0.117403	 0.007763
		CHANNELS 3 Zrotation Xrotation Yrotation
		JOINT Spine1
		{
			OFFSET	 0.000000	 0.137269	 0.000000
			CHANNELS 3 Zrotation Xrotation Yrotation
			JOINT Spine2
			{
				OFFSET	 0.000000	 0.156879	 0.000000
				CHANNELS 3 Zrotation Xrotation Yrotation
				JOINT LeftShoulder
				{
					OFFSET	 0.080501	 0.160143	 0.002496
					CHANNELS 3 Zrotation Xrotation Yrotation
					JOINT LeftArm
					{
						OFFSET	 0.000000	 0.164363	 0.000000
						CHANNELS 3 Zrotation Xrotation Yrotation
						JOINT LeftForeArm
						{
							OFFSET	 0.000000	 0.364576	 0.000000
							CHANNELS 3 Zrotation Xrotation Yrotation
							JOINT LeftHand
							{
								OFFSET	 0.000000	 0.360812	 0.000000
								CHANNELS 3 Zrotation Xrotation Yrotation
								JOINT LeftHandIndex1
								{
									OFFSET	 0.000000	 0.086006	 0.000000
									CHANNELS 3 Zrotation Xrotation Yrotation
									JOINT LeftHandIndex2
									{
										OFFSET	 0.000000	 0.047237	 0.000000
										CHANNELS 3 Zrotation Xrotation Yrotation
										JOINT LeftHandIndex3
										{
											OFFSET	-0.004284	 0.038165	 0.000551
											CHANNELS 3 Zrotation Xrotation Yrotation
											End Site
											{
												OFFSET	-0.004284	 0.038165	 0.000551
											}
										}
									}
								}
							}
						}
					}
				}
				JOINT Neck
				{
					OFFSET	 0.000000	 0.176489	 0.000000
					CHANNELS 3 Zrotation Xrotation Yrotation
					JOINT Head
					{
						OFFSET	 0.000000	 0.077941	 0.001747
						CHANNELS 3 Zrotation Xrotation Yrotation
						End Site
						{
							OFFSET	 0.000000	 0.077941	 0.001747
						}
					}
				}
				JOINT RightShoulder
				{
					OFFSET	-0.080363	 0.159706	-0.000306
					CHANNELS 3 Zrotation Xrotation Yrotation
					JOINT RightArm
					{
						OFFSET	 0.000000	 0.164196	 0.000000
						CHANNELS 3 Zrotation Xrotation Yrotation
						JOINT RightForeArm
						{
							OFFSET	 0.000000	 0.365611	 0.000000
							CHANNELS 3 Zrotation Xrotation Yrotation
							JOINT RightHand
							{
								OFFSET	 0.000000	 0.360648	 0.000000
								CHANNELS 3 Zrotation Xrotation Yrotation
								JOINT RightHandIndex1
								{
									OFFSET	 0.000000	 0.069977	 0.000000
									CHANNELS 3 Zrotation Xrotation Yrotation
									JOINT RightHandIndex2
									{
										OFFSET	 0.000000	 0.052305	 0.000000
										CHANNELS 3 Zrotation Xrotation Yrotation
										JOINT RightHandIndex3
										{
											OFFSET	 0.009002	 0.042196	 0.000782
											CHANNELS 3 Zrotation Xrotation Yrotation
											End Site
											{
												OFFSET	 0.009002	 0.042196	 0.000782
											}
										}
									}
								}
							}
						}
					}
				}
			}
		}
	}
}
MOTION
Frames:    4
Frame Time: 0.03333334
-0.044587	 1.234227	-1.246618	-3.887415	 1.518151	-174.107500	 174.640600	 7.710292	-16.755230	 4.295020	-29.467550	 6.063306	 7.353096	 80.584510	 0.055243	 1.512287	 31.240310	-2.811662	 166.687700	 27.111380	 21.061460	-5.850183	-53.583330	 6.265474	 3.971795	 70.186130	-3.306327	-1.668530	 33.137300	 2.886185	-1.432557	 8.668591	 4.678676	-2.943366	 4.259481	 3.185570	 3.284670	-4.642219	-12.117560	-121.358800	 7.423547	 94.035500	 25.060030	 45.086780	-7.502769	 5.103180	-0.263760	-0.072113	 34.335360	-15.771190	 27.288360	 4.624177	 18.856530	-1.654968	-5.863953	 21.470840	 2.373669	 5.331528	 4.340008	-0.169039	-0.168371	-5.009586	-0.144698	-2.100440	-2.334276	-5.995156	 118.423900	-0.013289	-90.826360	-6.530845	 45.993560	 0.028712	-4.903242	-0.192645	 0.050234	 4.716635	-12.843410	 14.423190	-2.438165	 25.992480	 1.336381	 15.855080	 44.981340	-11.843920	-8.529009	 23.990480	-1.227679
-0.044486	 1.234146	-1.251335	-3.913262	 1.418627	-174.016200	 174.693600	 7.607099	-16.989470	 4.349284	-29.557370	 6.237454	 7.940523	 80.725070	-0.572734	 1.518621	 31.319100	-2.814644	 166.290900	 27.688780	 21.759670	-5.882689	-53.599390	 6.309045	 4.543074	 71.195050	-3.755080	-1.671294	 33.170340	 2.887568	-1.313161	 8.624983	 3.824158	-2.964543	 4.248789	 3.180684	 3.289018	-4.646037	-12.140060	-121.356800	 7.502397	 94.074660	 25.444860	 44.797850	-7.634525	 5.387898	-0.264602	-0.422000	 35.240200	-16.483180	 26.953890	 4.634362	 18.889940	-1.660398	-5.863862	 21.500190	 2.376908	 5.332788	 4.369533	-0.168502	-0.169814	-5.016291	-0.138065	-2.075285	-2.367823	-5.998306	 118.412900	-0.059773	-90.804530	-6.140402	 45.791900	-0.122746	-5.186234	-0.193240	 0.400582	 5.002168	-13.058590	 14.359150	-2.401167	 25.717800	 1.316544	 15.785440	 44.713360	-11.736820	-8.530064	 23.714740	-1.209294
-0.044252	 1.233456	-1.262473	-3.963507	 1.226460	-173.840000	 174.762900	 7.288488	-17.056860	 4.337992	-29.712020	 6.347336	 9.121529	 81.119090	-1.882072	 1.530862	 31.470990	-2.820428	 165.558400	 29.063910	 22.953120	-5.934875	-53.535790	 6.403189	 5.679649	 72.877900	-4.716413	-1.676628	 33.234040	 2.890240	-1.088362	 8.537668	 2.169072	-2.992868	 4.256859	 3.163029	 3.291106	-4.666146	-12.183620	-121.352900	 7.654423	 94.150170	 23.308210	 44.535590	-5.867194	 10.459740	-0.497767	-1.063027	 34.491070	-17.749490	 26.182930	 4.654012	 18.954360	-1.670890	-5.863693	 21.556780	 2.383156	 5.335219	 4.426453	-0.167469	-0.172594	-5.029219	-0.125277	-2.026784	-2.432504	-6.004328	 118.391800	-0.149470	-90.762470	-5.193658	 45.346520	-0.560631	-5.734858	-0.194433	 1.075683	 5.375018	-13.426340	 14.217110	-2.330355	 25.188070	 1.278971	 15.654040	 44.196320	-11.532950	-8.531819	 23.183010	-1.173967
-0.043890	 1.232068	-1.279675	-4.026576	 0.987133	-173.620800	 174.841300	 6.675407	-17.102120	 4.355271	-29.809970	 6.571933	 10.745370	 81.748340	-3.738754	 1.546161	 31.660170	-2.827700	 164.631300	 31.091550	 24.244000	-5.762874	-53.172180	 6.800042	 7.005116	 74.443830	-5.970432	-1.683282	 33.313390	 2.893581	-0.818822	 8.421239	 0.098643	-3.007636	 4.315817	 3.127866	 3.283422	-4.713256	-12.238170	-121.348400	 7.843781	 94.244210	 21.576700	 43.906130	-4.351047	 16.006770	-0.743917	-1.840099	 33.600920	-19.295400	 25.097330	 4.678512	 19.034580	-1.683995	-5.863491	 21.627260	 2.390940	 5.338244	 4.497347	-0.166186	-0.176053	-5.045321	-0.109351	-1.966368	-2.513060	-6.011822	 118.365700	-0.261168	-90.710100	-3.719651	 44.649210	-1.319130	-6.421227	-0.196050	 1.915420	 5.547776	-13.758340	 14.001380	-2.243094	 24.528080	 1.233394	 15.495470	 43.551720	-11.283710	-8.533498	 22.520580	-1.130173
